<svg width="27" height="17" viewBox="0 0 27 17" fill="none" xmlns="http://www.w3.org/2000/svg">
<path d="M10.875 7.59375C12.3281 6.84375 13.125 5.76562 13.125 4.125C13.125 0.796875 10.6406 0 7.82812 0H0V16.5938H8.01562C11.0625 16.5938 13.875 15.1406 13.875 11.7656C13.875 9.70312 12.8906 8.15625 10.875 7.59375ZM3.60938 2.8125H7.07812C8.39062 2.8125 9.5625 3.1875 9.5625 4.73438C9.5625 6.14062 8.625 6.70312 7.3125 6.70312H3.60938V2.8125ZM7.54688 13.7812H3.60938V9.1875H7.59375C9.23438 9.1875 10.2188 9.89062 10.2188 11.5781C10.2188 13.2656 9 13.7812 7.54688 13.7812ZM24.3281 2.48438V0.84375H17.625V2.48438H24.3281ZM27 10.7812C27 7.21875 24.8906 4.21875 21.1406 4.21875C17.4375 4.21875 14.9531 6.98438 14.9531 10.5938C14.9531 14.3438 17.3438 16.9219 21.1406 16.9219C24 16.9219 25.875 15.6094 26.7656 12.8906H23.8594C23.5312 13.9219 22.2188 14.4375 21.2344 14.4375C19.3125 14.4375 18.2812 13.3125 18.2812 11.3906H26.9531C26.9531 11.2031 27 10.9688 27 10.7812ZM18.2812 9.28125C18.375 7.73438 19.4531 6.75 21 6.75C22.6875 6.75 23.5312 7.6875 23.6719 9.28125H18.2812Z" fill="white"/>
</svg>
