<svg width="24" height="24" viewBox="0 0 24 24" fill="none" xmlns="http://www.w3.org/2000/svg">
<path d="M12 0C5.57812 0 0.375 5.25 0.375 11.625C0.375 18.0469 5.57812 23.25 12 23.25C18.375 23.25 23.625 18.0469 23.625 11.625C23.625 5.25 18.375 0 12 0ZM19.6406 5.39062C21.0469 7.07812 21.8906 9.23438 21.8906 11.5781C21.5625 11.4844 18.2812 10.8281 15 11.25C14.7188 10.5938 14.4844 10.0312 14.1094 9.28125C17.8125 7.78125 19.4531 5.67188 19.6406 5.39062ZM18.5625 4.21875C18.375 4.5 16.875 6.51562 13.3594 7.82812C11.7188 4.82812 9.9375 2.39062 9.65625 2.01562C12.7969 1.26562 16.125 2.0625 18.5625 4.21875ZM7.73438 2.67188C8.01562 3.04688 9.79688 5.48438 11.4375 8.4375C6.79688 9.65625 2.71875 9.65625 2.25 9.60938C2.90625 6.5625 4.96875 3.98438 7.73438 2.67188ZM2.0625 11.6719C2.0625 11.5781 2.0625 11.4844 2.0625 11.3438C2.48438 11.3906 7.3125 11.4375 12.2344 9.9375C12.5625 10.5 12.7969 11.0625 13.0781 11.625C9.46875 12.6562 6.1875 15.5625 4.59375 18.2812C3 16.5469 2.0625 14.2031 2.0625 11.6719ZM5.85938 19.5C6.9375 17.3906 9.75 14.625 13.7344 13.2656C15.1406 16.875 15.7031 19.9219 15.8438 20.8125C12.6562 22.1719 8.8125 21.7969 5.85938 19.5ZM17.5312 19.875C17.4375 19.3125 16.875 16.4062 15.6094 12.7969C18.7031 12.3281 21.4219 13.125 21.7969 13.2188C21.3281 15.9844 19.7344 18.375 17.5312 19.875Z" fill="white"/>
</svg>
