<svg width="22" height="21" viewBox="0 0 22 21" fill="none" xmlns="http://www.w3.org/2000/svg">
<path d="M11.5 5.08594C8.5 5.08594 6.10938 7.52344 6.10938 10.4766C6.10938 13.4766 8.5 15.8672 11.5 15.8672C14.4531 15.8672 16.8906 13.4766 16.8906 10.4766C16.8906 7.52344 14.4531 5.08594 11.5 5.08594ZM11.5 13.9922C9.57812 13.9922 7.98438 12.4453 7.98438 10.4766C7.98438 8.55469 9.53125 7.00781 11.5 7.00781C13.4219 7.00781 14.9688 8.55469 14.9688 10.4766C14.9688 12.4453 13.4219 13.9922 11.5 13.9922ZM18.3438 4.89844C18.3438 4.19531 17.7812 3.63281 17.0781 3.63281C16.375 3.63281 15.8125 4.19531 15.8125 4.89844C15.8125 5.60156 16.375 6.16406 17.0781 6.16406C17.7812 6.16406 18.3438 5.60156 18.3438 4.89844ZM21.9062 6.16406C21.8125 4.47656 21.4375 2.97656 20.2188 1.75781C19 0.539062 17.5 0.164062 15.8125 0.0703125C14.0781 -0.0234375 8.875 -0.0234375 7.14062 0.0703125C5.45312 0.164062 4 0.539062 2.73438 1.75781C1.51562 2.97656 1.14062 4.47656 1.04688 6.16406C0.953125 7.89844 0.953125 13.1016 1.04688 14.8359C1.14062 16.5234 1.51562 17.9766 2.73438 19.2422C4 20.4609 5.45312 20.8359 7.14062 20.9297C8.875 21.0234 14.0781 21.0234 15.8125 20.9297C17.5 20.8359 19 20.4609 20.2188 19.2422C21.4375 17.9766 21.8125 16.5234 21.9062 14.8359C22 13.1016 22 7.89844 21.9062 6.16406ZM19.6562 16.6641C19.3281 17.6016 18.5781 18.3047 17.6875 18.6797C16.2812 19.2422 13 19.1016 11.5 19.1016C9.95312 19.1016 6.67188 19.2422 5.3125 18.6797C4.375 18.3047 3.67188 17.6016 3.29688 16.6641C2.73438 15.3047 2.875 12.0234 2.875 10.4766C2.875 8.97656 2.73438 5.69531 3.29688 4.28906C3.67188 3.39844 4.375 2.69531 5.3125 2.32031C6.67188 1.75781 9.95312 1.89844 11.5 1.89844C13 1.89844 16.2812 1.75781 17.6875 2.32031C18.5781 2.64844 19.2812 3.39844 19.6562 4.28906C20.2188 5.69531 20.0781 8.97656 20.0781 10.4766C20.0781 12.0234 20.2188 15.3047 19.6562 16.6641Z" fill="white"/>
</svg>
