<svg width="24" height="24" viewBox="0 0 24 24" fill="none" xmlns="http://www.w3.org/2000/svg">
<path d="M23.625 11.625C23.625 5.20312 18.4219 0 12 0C5.57812 0 0.375 5.20312 0.375 11.625C0.375 16.5938 3.42188 20.7656 7.73438 22.4531C7.64062 21.5625 7.54688 20.1562 7.78125 19.125C8.01562 18.2344 9.14062 13.3594 9.14062 13.3594C9.14062 13.3594 8.8125 12.6562 8.8125 11.625C8.8125 10.0312 9.75 8.8125 10.9219 8.8125C11.9062 8.8125 12.375 9.5625 12.375 10.4531C12.375 11.4375 11.7188 12.9375 11.3906 14.3438C11.1562 15.4688 12 16.4062 13.125 16.4062C15.1875 16.4062 16.7812 14.25 16.7812 11.1094C16.7812 8.29688 14.7656 6.375 11.9531 6.375C8.625 6.375 6.70312 8.85938 6.70312 11.3906C6.70312 12.4219 7.07812 13.5 7.54688 14.0625C7.64062 14.1562 7.64062 14.2969 7.64062 14.3906C7.54688 14.7656 7.3125 15.5625 7.3125 15.7031C7.26562 15.9375 7.125 15.9844 6.89062 15.8906C5.4375 15.1875 4.54688 13.0781 4.54688 11.3438C4.54688 7.6875 7.21875 4.3125 12.2344 4.3125C16.2656 4.3125 19.4062 7.21875 19.4062 11.0625C19.4062 15.0469 16.875 18.2812 13.3594 18.2812C12.1875 18.2812 11.0625 17.6719 10.6875 16.9219C10.6875 16.9219 10.125 19.1719 9.98438 19.6875C9.70312 20.7188 9 21.9844 8.53125 22.7344C9.60938 23.1094 10.7812 23.25 12 23.25C18.4219 23.25 23.625 18.0469 23.625 11.625Z" fill="white"/>
</svg>
