<svg width="38" height="37" viewBox="0 0 38 37" fill="none" xmlns="http://www.w3.org/2000/svg">
<path d="M1.58583 13.6173L1.43349 13.4885C0.845901 12.9088 0.845901 11.9856 1.43349 11.4274L12.5541 0.434767C13.1417 -0.144922 14.0775 -0.144922 14.6434 0.434767L14.7957 0.585056C15.3833 1.16475 15.3833 2.08795 14.7957 2.64617L3.67503 13.6173C3.08744 14.197 2.15165 14.197 1.58583 13.6173Z" fill="white"/>
<path d="M11.4225 32.1888C6.24302 32.1888 2.04285 28.0451 2.04285 22.9353C2.04285 17.8254 6.24302 13.6817 11.4225 13.6817C16.602 13.6817 20.8022 17.8469 20.8022 22.9353C20.8022 28.0451 16.602 32.1888 11.4225 32.1888ZM11.4225 16.4084C7.7664 16.4084 4.78493 19.3498 4.78493 22.9568C4.78493 26.5637 7.7664 29.5051 11.4225 29.5051C15.0786 29.5051 18.0601 26.5637 18.0601 22.9568C18.0601 19.3498 15.0786 16.4084 11.4225 16.4084Z" fill="white"/>
<path d="M37.407 22.6347L37.5593 22.785C38.1469 23.3647 38.1469 24.2879 37.5593 24.8461L26.4386 35.8172C25.8511 36.3969 24.9153 36.3969 24.3494 35.8172L24.1971 35.6669C23.6095 35.0873 23.6095 34.1641 24.1971 33.6058L35.3178 22.6347C35.9053 22.055 36.8411 22.055 37.407 22.6347Z" fill="white"/>
<path d="M27.5703 22.5703C22.3908 22.5703 18.1906 18.4266 18.1906 13.3168C18.1906 8.2069 22.3908 4.0632 27.5703 4.0632C32.7498 4.0632 36.9499 8.2069 36.9499 13.3168C36.9499 18.4266 32.7498 22.5703 27.5703 22.5703ZM27.5703 6.76842C23.9142 6.76842 20.9327 9.7098 20.9327 13.3168C20.9327 16.9237 23.9142 19.8651 27.5703 19.8651C31.2264 19.8651 34.2078 16.9237 34.2078 13.3168C34.2078 9.7098 31.2264 6.76842 27.5703 6.76842Z" fill="white"/>
</svg>
